<svg xmlns="http://www.w3.org/2000/svg" width="32" height="32" version="1" id="cinema"><path fill="#ffcc0f" fill-rule="evenodd" d="M32 16c0 8.824-7.176 16-16 16S0 24.824 0 16 7.176 0 16 0c8.877 0 16 7.176 16 16z" clip-rule="evenodd"></path><path fill="#ffa720" d="M17.678 31.83c.514-.054 1.044-.054 1.543-.156a15.868 15.868 0 0 0 5.718-2.41 16.12 16.12 0 0 0 5.801-7.041c.406-.957.72-1.962.934-3.002.102-.499.102-1.03.156-1.543l-7.71-7.711a1.465 1.465 0 0 0-1.044-.426h-.293v.588l-.588-.588H20.61v.586l-.586-.586h-1.585v.588l-.588-.588h-1.586v.586l-.586-.586h-1.586v.53l-.53-.53h-1.585v.586l-.586-.586H9.805v.588l-.588-.588h-.293c-.822 0-1.469.645-1.469 1.467v.88l.588.589h-.588v7.34l.588.587h-.588v.588c0 .411.162.777.426 1.041l9.797 9.797z"></path><path fill="#fff" d="M8.924 9.54c-.822 0-1.468.646-1.468 1.468v.881h1.761V9.54h-.293zm.88 0v2.35h1.586V9.54H9.805zm2.173 0v2.35h1.586V9.54h-1.586zm2.115 0v2.35h1.585V9.54h-1.585zm2.172 0v2.35h1.586V9.54h-1.586zm2.173 0v2.35h1.586V9.54h-1.586zm2.173 0v2.35h1.585V9.54H20.61zm2.173 0v2.35h1.761v-.882c0-.822-.646-1.468-1.468-1.468h-.293zM7.456 12.477v7.34h17.03v-7.34H7.456zm7.105 1.174c.06 0 .06 0 .118.059l3.288 2.055.059.059c.117.117.059.41-.059.47l-3.288 2.055c-.176.117-.411-.059-.411-.294v-4.11c0-.118.117-.294.293-.294zm-7.105 6.753v.588c0 .822.646 1.468 1.468 1.468h.293v-2.056H7.456zm2.349 0v2.056h1.585v-2.056H9.805zm2.172 0v2.056h1.586v-2.056h-1.586zm2.115 0v2.056h1.585v-2.056h-1.585zm2.172 0v2.056h1.586v-2.056h-1.586zm2.173 0v2.056h1.586v-2.056h-1.586zm2.173 0v2.056h1.585v-2.056H20.61zm2.173 0v2.056h.293c.822 0 1.468-.646 1.468-1.468v-.588h-1.761z"></path></svg>